<svg xmlns="http://www.w3.org/2000/svg" width="240" height="150" viewBox="0 0 240 150">
  <defs>
    <style>
      .cls-1 {
        fill: #1d1d1d;
        fill-rule: evenodd;
      }
    </style>
  </defs>
  <path id="Icon" class="cls-1" d="M1228,1530c-52.34,0-97.71,30.48-120,75,22.29,44.52,67.66,75,120,75s97.7-30.48,120-75C1325.71,1560.48,1280.34,1530,1228,1530Zm59.17,39.77a114.085,114.085,0,0,1,35.02,35.23,114.193,114.193,0,0,1-35.02,35.23,110,110,0,0,1-118.34,0,114.193,114.193,0,0,1-35.02-35.23,114.085,114.085,0,0,1,35.02-35.23c0.92-.58,1.85-1.15,2.78-1.71a60,60,0,1,0,112.78,0C1285.32,1568.62,1286.25,1569.19,1287.17,1569.77ZM1228,1581.09a22.5,22.5,0,1,1-22.5-22.5A22.5,22.5,0,0,1,1228,1581.09Z" transform="translate(-1108 -1530)"/>
</svg>
