<svg xmlns="http://www.w3.org/2000/svg" width="153" height="150" viewBox="0 0 153 150">
  <defs>
    <style>
      .cls-1 {
        fill: #1d1d1d;
        fill-rule: evenodd;
      }
    </style>
  </defs>
  <path id="Icon" class="cls-1" d="M1758.27,1558.5q-3.765,3.615-7.51,7.22c-31.88-24.23-67.18-11.88-83.16,8.98-17.85,23.29-15.73,56.09,5.1,76.36a58.015,58.015,0,0,0,76.61,3.9c21.67-17.35,31.43-52.31,7.92-82.76,2.5-2.3,5.07-4.65,7.63-7.01,19.5,18,25.91,60.46,1.28,89.22-26.04,30.41-72.07,32.99-100.59,5.61-29.32-28.15-28.65-74.04,1.61-101.48C1695.54,1532.79,1738.67,1538.14,1758.27,1558.5Zm-17.04,16.92c-3,3.07-5.76,5.92-8.43,8.67-20-9.54-36.08-6.71-46.06,7.85a32.01,32.01,0,0,0,46.32,43.14c10.67-8.28,18.1-25.61,5.93-44.55,2.86-2.73,5.83-5.55,8.79-8.37,13.19,13.04,15.05,40.5-1.35,58.32-16.5,17.93-45.72,19.35-63.42,2.9-19.05-17.72-19.91-46.62-1.93-64.99C1697.05,1562.06,1726.42,1560.45,1741.23,1575.42Zm55.77-28.46c-4.71,4.53-8.83,9.02-13.57,12.73-1.56,1.23-4.72.7-7.13,0.56-11.01-.63-10.84-0.7-12.36-11.5-0.57-4.06.3-6.95,3.47-9.62,3.54-2.99,6.66-6.48,9.98-9.74a3.673,3.673,0,0,1,1.13-.39,8.1,8.1,0,0,1,.66,2.14c0.12,9.82,5.71,13.96,14.9,14.49C1794.8,1545.68,1795.49,1546.25,1797,1546.96Zm-76.73,51.18c-2.92,2.45-5.95,4.79-8.73,7.38-2.12,1.99-3.54,4.44-.89,7.06,2.64,2.6,5.08,1.18,7.06-.96,2.58-2.8,4.92-5.81,7.65-9.07,4.16,7.19,2.66,14.77-2.6,18.99a15.063,15.063,0,0,1-19.06,0,14.819,14.819,0,0,1-3.46-19.06C1704.02,1595.98,1711.38,1593.67,1720.27,1598.14Z" transform="translate(-1644 -1529)"/>
</svg>
