<svg xmlns="http://www.w3.org/2000/svg" xmlns:xlink="http://www.w3.org/1999/xlink" width="143" height="152" viewBox="0 0 143 152">
  <defs>
    <style>
      .cls-1 {
        fill: #0d86fe;
        fill-rule: evenodd;
        filter: url(#filter);
      }
    </style>
    <filter id="filter" x="-13" y="-14" width="170" height="181" filterUnits="userSpaceOnUse">
      <feOffset result="offset" in="SourceAlpha"/>
      <feGaussianBlur result="blur" stdDeviation="3.873"/>
      <feFlood result="flood" flood-opacity="0.5"/>
      <feComposite result="composite" operator="in" in2="blur"/>
      <feBlend result="blend" in="SourceGraphic"/>
    </filter>
  </defs>
  <path id="Icon" class="cls-1" d="M56.376,137.958L71.49,97.627l-4.681-9.793h9.369L71.49,97.627,86.6,137.958l-9.493,12.791c19.254-3.131,49.987-19.81,64.9-19.81l-5.219-21.958a21.769,21.769,0,0,0-5.664-4.036A349.866,349.866,0,0,0,97.433,90.658a4.133,4.133,0,0,1-2.226-1.68,54.045,54.045,0,0,1-2.257-6.263c-0.413-1.348-.78-2.62-2.3-3.271a1.861,1.861,0,0,1-.779-1.457c0.086-4.9-1.08-10.047,2.649-14.322a2.343,2.343,0,0,0,.24-0.48c2.013-4.292,2.359-9.2,5.172-13.2a0.692,0.692,0,0,0,.1-0.34c0.326-3.047.662-6.087,0.928-9.132a1.42,1.42,0,0,0-.642-1.171c-1.549-.535-1.468-1.74-1.457-2.963,0-5.951,0-6.815-.011-12.771a11.233,11.233,0,0,0-3.719-8.9c-3.056-2.672-6.194-5.265-9.332-7.85-1.508-1.253-1.647-2.215-.225-3.594a17.548,17.548,0,0,1,2.16-1.554c-0.164-.234-0.321-0.462-0.478-0.7a19.485,19.485,0,0,0-2.823.015c-3.476.545-6.96,1.024-10.366,1.807-6.506,1.492-12.824,3.482-18.1,7.733-3.609,2.906-6.5,6.286-6.86,11.071-0.179,2.515-.157,5.031-0.179,7.538-0.025,4.094.037,3.1-.058,7.184A2.417,2.417,0,0,1,46,38.277c-1.694.539-1.742,1.593-1.518,2.972,0.169,0.947.049,1.939,0.258,2.866,0.584,2.556,1.21,5.111,1.966,7.631,0.554,1.874,1.648,3.647,1.957,5.556a18.577,18.577,0,0,0,4.69,9.992,2.834,2.834,0,0,1,.711,1.9q-0.314,4.388-.919,8.769a2.139,2.139,0,0,1-1.2,1.517c-2,.407-2.3,1.909-2.779,3.42-0.627,2-1.294,4.007-2.089,5.935a3.079,3.079,0,0,1-1.481,1.5c-3.549,1.5-7.163,2.894-10.738,4.355-3.8,1.561-7.646,3.052-11.358,4.772-3.829,1.785-7.543,3.8-11.294,5.756a27.82,27.82,0,0,0-6,4.017L0.993,130.924c25.414,0,38.686,17.926,65.129,20.138Zm39.9-21.351h21.953v3.818H96.272v-3.818Z"/>
</svg>
