<svg xmlns="http://www.w3.org/2000/svg" xmlns:xlink="http://www.w3.org/1999/xlink" width="208" height="152" viewBox="0 0 208 152">
  <defs>
    <style>
      .cls-1 {
        fill: #0d86fe;
        fill-rule: evenodd;
        filter: url(#filter);
      }
    </style>
    <filter id="filter" x="-14" y="-13" width="236" height="179" filterUnits="userSpaceOnUse">
      <feOffset result="offset" in="SourceAlpha"/>
      <feGaussianBlur result="blur" stdDeviation="3.873"/>
      <feFlood result="flood" flood-opacity="0.5"/>
      <feComposite result="composite" operator="in" in2="blur"/>
      <feBlend result="blend" in="SourceGraphic"/>
    </filter>
  </defs>
  <path id="Icon" class="cls-1" d="M93.857,118.714A13.322,13.322,0,0,0,76.2,112.242a13.248,13.248,0,0,0-6.482,17.608,13.329,13.329,0,0,0,17.657,6.46,13.218,13.218,0,0,0,6.482-17.6h0Zm0,0M58.447,25.59A12.7,12.7,0,0,0,63.675,26.7,12.838,12.838,0,0,0,68.913,2.113,12.852,12.852,0,1,0,58.447,25.59h0Zm0,0M71.741,73.2c-1.03,2.628-.9,5.078.342,6.882a4.987,4.987,0,0,0,4.13,2.2c2.576,0,4.823-1.85,6.031-4.936,8.68-22.478,3.333-37.727-16.228-46.568a20.7,20.7,0,0,0-2.174-1.46c-4.565-2.688-8.919-4.055-12.916-4.055a14.831,14.831,0,0,0-1.974.13l-2.413.73c-4.021,1.732-15.883,2.688-35.268,2.851-4.741.036-7.2,3.231-7.19,6.367,0.012,3.1,2.5,6.234,7.215,6.234,6.234-.048,12.537-0.425,18.65-0.766l2.97-.175L15.092,75.706,2.449,100.915c-0.827,1.874-3.358,7.592,1.041,10.03,0.037,0.036.07,0.072,0.118,0.117l-0.118.248,0.212-.175a5.5,5.5,0,0,0,3.182.977c1.811,0,4.436-.814,6.67-4.655L30.7,81.279a1.589,1.589,0,0,1,1.209-.766,1.827,1.827,0,0,1,.651.154,1.139,1.139,0,0,1,.672.567,1.3,1.3,0,0,1-.069.9L15.035,123.674c-2.177,4.879-1.314,8.886,2.234,10.455a7.59,7.59,0,0,0,3.073.706c1.774,0,4.247-.787,5.916-4.55,0.343-.613,33.219-61.853,41.865-80.663,6.255,5.953,7.438,13.659,3.618,23.574h0Zm0,0M167.3,21.653a12.571,12.571,0,1,1-12.57-12.528A12.549,12.549,0,0,1,167.3,21.653h0Zm0,0M197.56,79.191a6.3,6.3,0,0,0,8.089-3.723c4.011-10.856-2.4-26.579-3.146-28.335l-0.887-2.1-22.292-11.5a6.323,6.323,0,0,0-4.126-.567c-10.1-.86-23.394,6.553-26.846,8.605-0.545.329-.853,0.519-0.853,0.519V42.1a5.88,5.88,0,0,0-1.56,1.451l-12.11,16.866-16.121,7.908a6.281,6.281,0,1,0,5.558,11.267l18.971-9.3,6.267-8.732,1.041,20.071s0.073,0.024.191,0.069a6.593,6.593,0,0,0,.163,1.074l2.035,7.79-12.122,13.683-30.252,36.43a6.3,6.3,0,0,0,9.709,8.017l30.064-36.207,6.422-7.262,0.639,2.453,3.511,0.966c9.746,2.664,21.511,6.517,24.778,8.381a6.3,6.3,0,0,0,5.144,2.649c0.142,0,.294,0,0.436-0.009a6.282,6.282,0,0,0,5.855-6.7c-0.354-5.247-5.168-7.733-18.519-12.117-4.069-1.343-8.078-2.535-10.824-3.322l-0.956-3.666,4.211-4.749c4.057-2.546,11.41-24.1,12.807-39.637l8.833,4.562c1.705,4.806,3.7,12.881,2.153,17.078a6.279,6.279,0,0,0,3.737,8.071h0Zm0,0"/>
</svg>
