<svg xmlns="http://www.w3.org/2000/svg" xmlns:xlink="http://www.w3.org/1999/xlink" width="152" height="152" viewBox="0 0 152 152">
  <defs>
    <style>
      .cls-1 {
        fill: #0d86fe;
        fill-rule: evenodd;
        filter: url(#filter);
      }
    </style>
    <filter id="filter" x="-13" y="-13" width="179" height="179" filterUnits="userSpaceOnUse">
      <feOffset result="offset" in="SourceAlpha"/>
      <feGaussianBlur result="blur" stdDeviation="3.873"/>
      <feFlood result="flood" flood-opacity="0.5"/>
      <feComposite result="composite" operator="in" in2="blur"/>
      <feBlend result="blend" in="SourceGraphic"/>
    </filter>
  </defs>
  <path id="Icon" class="cls-1" d="M78.518,70.2a7.641,7.641,0,0,0-7.581,6.853l10.977-6.089A7.431,7.431,0,0,0,78.518,70.2Zm28.3,0a7.646,7.646,0,0,0-7.558,6.626l10.9-5.89A7.442,7.442,0,0,0,106.815,70.2Zm34.222,17.938C145.706,85.128,151,81.712,151,76s-5.293-9.127-9.962-12.141c-1.6-1.036-4.535-2.927-5.212-3.92,0.051-1.25,1.777-4.628,2.622-6.283,2.481-4.855,5.291-10.357,2.508-15.169-2.813-4.863-9.037-5.172-14.527-5.446-1.962-.1-5.549-0.276-6.64-0.83-0.553-1.09-.732-4.678-0.83-6.64-0.274-5.491-.583-11.713-5.447-14.527a8.761,8.761,0,0,0-4.45-1.148c-3.562,0-7.2,1.859-10.718,3.656-2.1,1.071-4.945,2.526-6.293,2.616-1-.689-2.878-3.607-3.91-5.206C85.128,6.292,81.711,1,76,1s-9.128,5.292-12.142,9.961c-1.034,1.6-2.92,4.524-3.913,5.209-1.315-.076-4.182-1.541-6.291-2.618-3.517-1.8-7.154-3.656-10.717-3.656a8.767,8.767,0,0,0-4.451,1.148c-4.862,2.813-5.172,9.036-5.446,14.527-0.1,1.962-.276,5.549-0.83,6.64-1.091.553-4.679,0.732-6.64,0.83-5.491.273-11.712,0.583-14.527,5.446C8.258,43.3,11.07,48.8,13.55,53.655c0.846,1.655,2.573,5.034,2.622,6.284-0.676.992-3.609,2.884-5.212,3.92C6.29,66.872,1,70.288,1,76s5.291,9.128,9.962,12.142c1.6,1.035,4.536,2.927,5.212,3.92-0.05,1.25-1.777,4.628-2.622,6.283C11.07,103.2,8.258,108.7,11.043,113.513c2.814,4.862,9.036,5.172,14.527,5.446,1.962,0.1,5.549.276,6.64,0.83,0.554,1.091.732,4.678,0.83,6.64,0.273,5.491.583,11.714,5.446,14.527a8.753,8.753,0,0,0,4.451,1.148c3.563,0,7.2-1.858,10.717-3.656,2.1-1.071,4.946-2.526,6.294-2.616,0.994,0.689,2.878,3.607,3.91,5.206C66.871,145.708,70.287,151,76,151s9.129-5.292,12.142-9.962c1.034-1.6,2.919-4.523,3.913-5.208,1.315,0.076,4.182,1.542,6.29,2.618,3.518,1.8,7.156,3.656,10.718,3.656a8.762,8.762,0,0,0,4.45-1.148c4.863-2.814,5.172-9.036,5.446-14.527,0.1-1.962.277-5.549,0.83-6.64,1.091-.553,4.678-0.732,6.64-0.83,5.49-.273,11.714-0.584,14.527-5.446,2.783-4.811-.027-10.314-2.508-15.169-0.845-1.656-2.571-5.034-2.622-6.284C136.5,91.068,139.433,89.177,141.037,88.141ZM47.768,53.285a3.041,3.041,0,0,1-3.04,3.041H43.693a4.712,4.712,0,0,0-3.842,1.752,5.751,5.751,0,0,0-1.506,3.541v2.053h4.735a3.041,3.041,0,0,1,3.041,3.041v0.719a3.041,3.041,0,0,1-3.041,3.041H38.346v18.45A3.042,3.042,0,0,1,35.3,91.965H34.477a3.042,3.042,0,0,1-3.042-3.041V62.375a12.745,12.745,0,0,1,3.377-9.206,11.834,11.834,0,0,1,8.881-3.509h1.035a3.041,3.041,0,0,1,3.04,3.041v0.584h0ZM62.313,69.947A6.592,6.592,0,0,0,57.08,72.42a9.769,9.769,0,0,0-2.025,6.127V88.923a3.041,3.041,0,0,1-3.041,3.041H51.187a3.041,3.041,0,0,1-3.041-3.038l-0.019-22.21a3.041,3.041,0,0,1,3.04-3.044h0.846a3.043,3.043,0,0,1,2.92,2.186,13.164,13.164,0,0,1,7.018-2.693A3.039,3.039,0,0,1,65.206,66.2v0.711A3.042,3.042,0,0,1,62.313,69.947ZM92.045,83.3a14.24,14.24,0,0,1-3.25,4.809,14.546,14.546,0,1,1-20.561-20.58A14.895,14.895,0,0,1,87.571,66.22a14.872,14.872,0,0,1,3,3.115,3.04,3.04,0,0,1-.974,4.463l-16.635,9.23c0.056,0.06.114,0.12,0.173,0.178a7.628,7.628,0,0,0,10.788-.013,7.481,7.481,0,0,0,1.614-2.343,3.04,3.04,0,0,1,3.23-1.816l0.892,0.129A3.04,3.04,0,0,1,92.045,83.3Zm28.3,0a14.283,14.283,0,0,1-3.251,4.809A14.546,14.546,0,1,1,96.53,67.532a14.078,14.078,0,0,1,10.285-4.265,14.841,14.841,0,0,1,8.937,2.867,11.4,11.4,0,0,1,2.951,2.977l0.16,0.223a3.043,3.043,0,0,1-1,4.478l-16.158,8.744a3.112,3.112,0,0,1-.644.26c0.117,0.132.238,0.262,0.367,0.39a7.627,7.627,0,0,0,10.787-.013,7.44,7.44,0,0,0,1.614-2.343,3.038,3.038,0,0,1,3.23-1.816l0.893,0.129A3.041,3.041,0,0,1,120.343,83.3Z"/>
</svg>
