<svg xmlns="http://www.w3.org/2000/svg" xmlns:xlink="http://www.w3.org/1999/xlink" width="162" height="150" viewBox="1 1 162 150">
  <defs>
    <style>
      .cls-1 {
        fill: #0d86fe;
        fill-rule: evenodd;
        filter: url(#filter);
      }
    </style>
    <filter id="filter" x="-14" y="-13" width="193" height="179" filterUnits="userSpaceOnUse">
      <feOffset result="offset" in="SourceAlpha"/>
      <feGaussianBlur result="blur" stdDeviation="3.873"/>
      <feFlood result="flood" flood-opacity="0.5"/>
      <feComposite result="composite" operator="in" in2="blur"/>
      <feBlend result="blend" in="SourceGraphic"/>
    </filter>
  </defs>
  <path id="Icon" class="cls-1" d="M156.1,32.309h0.7a6.233,6.233,0,0,0,4.967-2.3,6.925,6.925,0,0,0,1.256-5.779L159.7,8.144C158.873,4.136,155.333,1,151.637,1H12.533c-3.7,0-7.241,3.14-8.066,7.147L1.145,24.228a6.924,6.924,0,0,0,1.26,5.779,6.234,6.234,0,0,0,4.967,2.3H8.066Q5.427,46.658,2.78,61.006l-0.143.765a19.268,19.268,0,0,0,10.4,21.17v58.116A9.907,9.907,0,0,0,22.883,151h118.4a9.911,9.911,0,0,0,9.851-9.942v-58.1a19.245,19.245,0,0,0,10.4-21.175ZM53.334,62.371q1.117-15.031,2.228-30.062H74.6q-0.21,14.93-.4,29.851c-0.113,6.153-5.78,9.973-10.993,9.986a10.458,10.458,0,0,1-7.6-3.263A8.515,8.515,0,0,1,53.334,62.371ZM25.369,72.146l-0.113,0-0.148,0a9.343,9.343,0,0,1-7.131-3.2,7.622,7.622,0,0,1-1.661-6.37L21.23,32.31H40.4l-3,29.636C36.771,67.628,31.471,72.108,25.369,72.146Zm50.745,38.448a3.808,3.808,0,0,1-3.79,3.823H39.745a3.809,3.809,0,0,1-3.794-3.823V99.5a3.808,3.808,0,0,1,3.794-3.823h32.58a3.807,3.807,0,0,1,3.79,3.823v11.09ZM90.154,62.17l-0.409-29.86h19.033q1.095,14.748,2.194,29.5l0.046,0.567a8.478,8.478,0,0,1-2.27,6.509,10.446,10.446,0,0,1-7.619,3.262C95.941,72.134,90.268,68.312,90.154,62.17Zm38.065,70.107a3.807,3.807,0,0,1-3.79,3.823h-20.27a3.8,3.8,0,0,1-3.787-3.823V103.218a3.8,3.8,0,0,1,3.787-3.822h20.27a3.806,3.806,0,0,1,3.79,3.822v29.058ZM146.192,68.96a9.293,9.293,0,0,1-7.092,3.187h-0.068c-6.141-.044-11.448-4.525-12.076-10.179q-1.509-14.828-3.015-29.657h19l4.914,30.281A7.653,7.653,0,0,1,146.192,68.96Z"/>
</svg>
